<svg width="16" height="16" viewBox="0 0 16 16" fill="none" xmlns="http://www.w3.org/2000/svg">
<path d="M9.39996 6.11V8.13999H11.22C11.36 8.13999 11.43 8.28 11.43 8.42L11.15 9.75C11.15 9.82 11.01 9.88999 10.94 9.88999H9.39996V15H7.29996V9.96H6.10996C5.96996 9.96 5.89996 9.89 5.89996 9.75V8.42C5.89996 8.28 5.96996 8.21 6.10996 8.21H7.29996V5.9C7.29996 4.71 8.20996 3.8 9.39996 3.8H11.29C11.43 3.8 11.5 3.87 11.5 4.01V5.69C11.5 5.83 11.43 5.9 11.29 5.9H9.60996C9.46996 5.9 9.39996 5.97 9.39996 6.11Z" stroke="#002937" stroke-miterlimit="10" stroke-linecap="round"/>
<path d="M10.1 15H5.9C2.4 15 1 13.6 1 10.1V5.9C1 2.4 2.4 1 5.9 1H10.1C13.6 1 15 2.4 15 5.9V10.1C15 13.6 13.6 15 10.1 15Z" stroke="#002937" stroke-linecap="round" stroke-linejoin="round"/>
</svg>
