<svg width="21" height="24" viewBox="0 0 21 24" fill="none" xmlns="http://www.w3.org/2000/svg">
<path d="M15.7386 10.4875C15.7386 13.6741 13.3933 16.2573 10.5003 16.2573C7.60725 16.2573 5.26196 13.6741 5.26196 10.4875C5.26196 9.58963 5.45358 8.74312 5.7855 7.9856H0V21.4783C0 22.7152 0.91875 23.7271 2.04167 23.7271H18.9583C20.0812 23.7271 21 22.7152 21 21.4783V7.9856H15.2148C15.547 8.74312 15.7386 9.58963 15.7386 10.4875Z" fill="#002937"/>
<path d="M18.9583 0.275452H2.04167C0.91875 0.275452 0 1.28741 0 2.52424V7.02183H6.31896C7.27504 5.62469 8.78937 4.71778 10.5 4.71778C12.2106 4.71778 13.725 5.62469 14.681 7.02183H21V2.52424C21 1.28741 20.0812 0.275452 18.9583 0.275452ZM1.67883 5.96682H0.91875V2.72374C0.91875 2.15641 1.23258 1.67035 1.67912 1.46378L1.67883 5.96682ZM2.92425 5.96682H2.20412V1.35744H2.92425V5.96682ZM4.16937 5.96682H3.44925V1.35744H4.16937V5.96682ZM5.41363 2.72374V4.60052V5.96682H4.69437V1.35744H5.41363V2.72374ZM19.9357 4.60052C19.9357 5.35547 19.3804 5.96682 18.6958 5.96682H16.6807C15.9959 5.96682 15.4405 5.35547 15.4405 4.60052V2.72374C15.4405 1.96879 15.9959 1.35744 16.6807 1.35744H18.6958C19.3807 1.35744 19.9357 1.96879 19.9357 2.72374V4.60052Z" fill="#002937"/>
<path d="M10.5004 15.5827C13.0484 15.5827 15.114 13.3066 15.114 10.5007C15.114 7.69456 13.0487 5.41846 10.5004 5.41846C7.95181 5.41846 5.88623 7.69456 5.88623 10.5007C5.88623 13.3063 7.95181 15.5827 10.5004 15.5827ZM10.5001 6.45162C12.5301 6.45162 14.1763 8.26447 14.1763 10.5007C14.1763 12.7367 12.5304 14.5498 10.5001 14.5498C8.46981 14.5498 6.82394 12.737 6.82394 10.5007C6.82423 8.26414 8.47011 6.45162 10.5001 6.45162Z" fill="#002937"/>
</svg>
