<svg width="25" height="23" viewBox="0 0 25 23" fill="none" xmlns="http://www.w3.org/2000/svg">
<path d="M25 3.0269C24.0802 3.47605 23.092 3.77965 22.0543 3.91589C23.1131 3.21679 23.9267 2.10966 24.3091 0.791192C23.3182 1.43845 22.2202 1.90905 21.0524 2.16151C20.1171 1.0644 18.784 0.377808 17.3087 0.377808C14.4764 0.377808 12.1797 2.90675 12.1797 6.02716C12.1797 6.46951 12.2252 6.90113 12.3128 7.31487C8.05001 7.07922 4.27094 4.82992 1.74117 1.41163C1.29963 2.24626 1.04671 3.21715 1.04671 4.25204C1.04671 6.21204 1.9522 7.94067 3.32844 8.95411C2.48789 8.92443 1.69701 8.67018 1.00548 8.24749C1.00483 8.2711 1.00483 8.29434 1.00483 8.31866C1.00483 11.055 2.77262 13.3383 5.11863 13.8579C4.68845 13.9862 4.23555 14.0556 3.76771 14.0556C3.43688 14.0556 3.11579 14.0206 2.80249 13.9544C3.45506 16.1984 5.34914 17.8322 7.59354 17.878C5.83809 19.3928 3.62681 20.2964 1.22365 20.2964C0.809709 20.2964 0.401608 20.27 0 20.2174C2.26972 21.8202 4.96572 22.7549 7.86203 22.7549C17.2961 22.7549 22.455 14.1472 22.455 6.68264C22.455 6.43804 22.4498 6.1938 22.44 5.95099C23.4429 5.15498 24.3127 4.15978 25 3.0269Z" fill="#002937"/>
</svg>
