<svg width="20" height="23" viewBox="0 0 20 23" fill="none" xmlns="http://www.w3.org/2000/svg">
<path d="M18.8961 0.377808H1.10389C0.494167 0.377808 0 0.922108 0 1.59369V21.1912C0 21.8625 0.494167 22.4068 1.10389 22.4068H10.6825V13.8761H8.07611V10.5515H10.6825V8.09958C10.6825 5.25417 12.2603 3.7051 14.5647 3.7051C15.6686 3.7051 16.6172 3.79536 16.8939 3.83605V6.80966L15.2956 6.81058C14.0422 6.81058 13.7997 7.46655 13.7997 8.4291V10.5518H16.7886L16.3994 13.8764H13.7997V22.4068H18.8964C19.5058 22.4068 20 21.8625 20 21.1909V1.59369C20 0.922108 19.5058 0.377808 18.8961 0.377808Z" fill="#002937"/>
</svg>
