<svg width="26" height="23" viewBox="0 0 26 23" fill="none" xmlns="http://www.w3.org/2000/svg">
<path d="M25.1369 0.377808H0.863065C0.386961 0.377808 0 0.804398 0 1.3288V3.24195C0 3.3301 0.0867792 3.43126 0.157688 3.47217L12.9166 11.4993C12.9497 11.5205 12.9868 11.5302 13.024 11.5302C13.0618 11.5302 13.0999 11.5194 13.1334 11.4974L25.5067 3.47998C25.5762 3.43721 25.7606 3.32415 25.8298 3.27208C25.9136 3.20922 26 3.15232 26 3.03963V1.32843C26 0.804399 25.613 0.377808 25.1369 0.377808Z" fill="#002937"/>
<path d="M25.892 6.12652C25.8245 6.08337 25.7421 6.08523 25.6742 6.12801L18.6721 10.6658C18.6161 10.7015 18.5773 10.7647 18.5678 10.8361C18.5594 10.9072 18.5796 10.9797 18.6232 11.0321L25.6263 19.3471C25.6678 19.3966 25.7246 19.423 25.784 19.423C25.8107 19.423 25.8377 19.4174 25.863 19.407C25.9457 19.3709 25.9997 19.2835 25.9997 19.1853V6.33293C25.9997 6.24739 25.9589 6.16892 25.892 6.12652Z" fill="#002937"/>
<path d="M16.6546 12.1895C16.5858 12.1073 16.475 12.0891 16.3875 12.1456L13.5809 13.9647C13.2513 14.1782 12.8293 14.18 12.4977 13.9725L10.0277 12.4183C9.94596 12.3673 9.84297 12.3796 9.77409 12.4502L0.394504 22.0331C0.34453 22.0844 0.319543 22.1584 0.326972 22.2332C0.3344 22.3079 0.373907 22.3749 0.432997 22.4124C0.578868 22.5069 0.719673 22.5519 0.862842 22.5519H24.8885C24.9746 22.5519 25.0523 22.4958 25.0861 22.4087C25.1205 22.3224 25.105 22.2217 25.0462 22.1525L16.6546 12.1895Z" fill="#002937"/>
<path d="M7.71018 11.3166C7.76083 11.2657 7.78616 11.1906 7.77873 11.1158C7.7713 11.0407 7.73078 10.9741 7.67135 10.9362L0.321792 6.31249C0.256286 6.27083 0.173558 6.27158 0.106701 6.31398C0.0405195 6.35638 0 6.43485 0 6.51928V18.6512C0 18.7453 0.0506493 18.8309 0.128987 18.8684C0.156675 18.8822 0.186052 18.8889 0.215766 18.8889C0.268779 18.8889 0.321792 18.8669 0.362312 18.8253L7.71018 11.3166Z" fill="#002937"/>
</svg>
