<svg width="17" height="17" viewBox="0 0 17 17" fill="none" xmlns="http://www.w3.org/2000/svg">
<path d="M6.25 16H10.75C14.5 16 16 14.5 16 10.75V6.25C16 2.5 14.5 1 10.75 1H6.25C2.5 1 1 2.5 1 6.25V10.75C1 14.5 2.5 16 6.25 16Z" stroke="#002937" stroke-linecap="round" stroke-linejoin="round"/>
<path d="M8.5 11.125C9.94975 11.125 11.125 9.94975 11.125 8.5C11.125 7.05025 9.94975 5.875 8.5 5.875C7.05025 5.875 5.875 7.05025 5.875 8.5C5.875 9.94975 7.05025 11.125 8.5 11.125Z" stroke="#002937" stroke-linecap="round" stroke-linejoin="round"/>
<path d="M12.7271 4.75H12.7363" stroke="#002937" stroke-linecap="round" stroke-linejoin="round"/>
</svg>
